<svg width="31" height="31" viewBox="0 0 31 31" fill="none" xmlns="http://www.w3.org/2000/svg">
<path d="M15.9688 0.328125C7.68875 0.328125 0.96875 7.04813 0.96875 15.3281C0.96875 23.6081 7.68875 30.3281 15.9688 30.3281C24.2488 30.3281 30.9688 23.6081 30.9688 15.3281C30.9688 7.04813 24.2488 0.328125 15.9688 0.328125ZM15.9688 27.3281C9.35375 27.3281 3.96875 21.9431 3.96875 15.3281C3.96875 8.71313 9.35375 3.32812 15.9688 3.32812C22.5837 3.32812 27.9688 8.71313 27.9688 15.3281C27.9688 21.9431 22.5837 27.3281 15.9688 27.3281ZM16.4338 14.0381C13.7788 13.3631 12.9237 12.6281 12.9237 11.5331C12.9237 10.2731 14.1087 9.38812 16.0737 9.38812C18.1437 9.38812 18.9237 10.3781 18.9837 11.8481H21.5487C21.4738 9.83813 20.2437 7.99312 17.8137 7.39313V4.82812H14.3187V7.36312C12.0537 7.84312 10.2388 9.31312 10.2388 11.5781C10.2388 14.2631 12.4738 15.6131 15.7288 16.3931C18.6537 17.0831 19.2388 18.1181 19.2388 19.1981C19.2388 19.9931 18.6537 21.2831 16.0887 21.2831C13.6888 21.2831 12.7438 20.2031 12.6088 18.8231H10.0287C10.1788 21.3731 12.0687 22.8131 14.3187 23.2781V25.8281H17.8288V23.3231C20.1087 22.8881 21.9088 21.5831 21.9237 19.1681C21.9088 15.8681 19.0738 14.7281 16.4338 14.0381Z" fill="#282828"/>
</svg>
