<svg width="41" height="35" viewBox="0 0 41 35" fill="none" xmlns="http://www.w3.org/2000/svg">
<path d="M20.6845 33.9423C18.1855 35.3105 15.2131 33.8899 14.8144 31.073C14.2074 26.8977 13.6231 22.7092 13.068 18.5188C12.9976 17.9769 12.7679 17.6316 12.3581 17.3155C9.02454 14.7442 5.71368 12.1598 2.40772 9.55768C0.460759 8.02304 0.300209 5.38233 2.03899 3.72123C2.79628 2.98528 3.71173 2.68079 4.75654 2.60035C12.1935 2.04079 19.611 1.44761 27.0415 0.876844C30.1873 0.628963 33.338 0.363314 36.4918 0.155604C39.2012 -0.0344601 41.1844 2.06177 40.6947 4.59995C40.5947 5.13563 40.3552 5.69212 40.0397 6.14316C33.9954 14.9951 27.9445 23.8359 21.8694 32.6608C21.5555 33.1408 21.0892 33.5145 20.6845 33.9423ZM36.2061 2.88966C36.1981 2.84949 36.1901 2.80932 36.182 2.76915C35.9776 2.78261 35.7667 2.78487 35.5623 2.79834C28.5115 3.3441 21.4606 3.88987 14.4033 4.42443C11.2218 4.66304 8.05819 4.90628 4.88965 5.16728C3.92108 5.24852 3.3053 5.78328 3.46445 6.55772C3.55128 6.97062 3.86839 7.41488 4.21177 7.6946C7.37191 10.2017 10.5646 12.6602 13.7183 15.1561C14.1167 15.4787 14.394 15.5128 14.8536 15.2325C21.2063 11.5349 27.5671 7.87744 33.9327 4.20223C34.6943 3.76252 35.4445 3.32937 36.2061 2.88966ZM37.6733 5.08965C37.4769 5.14328 37.4591 5.13864 37.4364 5.15177C30.2637 9.29293 23.0845 13.4229 15.9247 17.5865C15.7542 17.6849 15.6157 18.0487 15.6445 18.2561C15.825 19.7501 16.0526 21.2468 16.2623 22.7389C16.6272 25.3661 16.9922 27.9934 17.3685 30.6141C17.5175 31.6334 18.3438 32.172 19.1654 31.7574C19.4739 31.6092 19.7259 31.2844 19.9325 30.9859C25.409 23.0144 30.8742 15.0495 36.333 7.07336C36.751 6.45859 37.174 5.82606 37.6733 5.08965Z" fill="#282828"/>
</svg>
