<svg width="25" height="25" viewBox="0 0 25 25" fill="none" xmlns="http://www.w3.org/2000/svg">
<path d="M16.8789 3.19141C15.1389 3.19141 13.4689 4.00141 12.3789 5.28141C11.2889 4.00141 9.61891 3.19141 7.87891 3.19141C4.79891 3.19141 2.37891 5.61141 2.37891 8.69141C2.37891 12.4714 5.77891 15.5514 10.9289 20.2314L12.3789 21.5414L13.8289 20.2214C18.9789 15.5514 22.3789 12.4714 22.3789 8.69141C22.3789 5.61141 19.9589 3.19141 16.8789 3.19141ZM12.4789 18.7414L12.3789 18.8414L12.2789 18.7414C7.51891 14.4314 4.37891 11.5814 4.37891 8.69141C4.37891 6.69141 5.87891 5.19141 7.87891 5.19141C9.41891 5.19141 10.9189 6.18141 11.4489 7.55141H13.3189C13.8389 6.18141 15.3389 5.19141 16.8789 5.19141C18.8789 5.19141 20.3789 6.69141 20.3789 8.69141C20.3789 11.5814 17.2389 14.4314 12.4789 18.7414Z" fill="white"/>
</svg>
