<svg width="39" height="40" viewBox="0 0 39 40" fill="none" xmlns="http://www.w3.org/2000/svg">
<path d="M26.7494 5.17188C23.944 5.17188 21.2515 6.47784 19.4941 8.54158C17.7367 6.47784 15.0441 5.17188 12.2387 5.17188C7.27286 5.17188 3.37109 9.07364 3.37109 14.0395C3.37109 20.134 8.85291 25.0999 17.1563 32.6455L19.4941 34.7576L21.8319 32.6293C30.1353 25.0999 35.6171 20.134 35.6171 14.0395C35.6171 9.07364 31.7153 5.17188 26.7494 5.17188ZM19.6553 30.2431L19.4941 30.4044L19.3329 30.2431C11.6583 23.2941 6.59569 18.6991 6.59569 14.0395C6.59569 10.8149 9.01414 8.39647 12.2387 8.39647C14.7217 8.39647 17.1401 9.99265 17.9946 12.2015H21.0096C21.848 9.99265 24.2665 8.39647 26.7494 8.39647C29.974 8.39647 32.3925 10.8149 32.3925 14.0395C32.3925 18.6991 27.3299 23.2941 19.6553 30.2431Z" fill="#282828"/>
</svg>
