<svg width="28" height="27" viewBox="0 0 28 27" fill="none" xmlns="http://www.w3.org/2000/svg">
<path d="M19.7188 16.7109H18.5338L18.1138 16.3059C19.5837 14.5959 20.4688 12.3759 20.4688 9.96094C20.4688 4.57594 16.1038 0.210938 10.7188 0.210938C5.33375 0.210938 0.96875 4.57594 0.96875 9.96094C0.96875 15.3459 5.33375 19.7109 10.7188 19.7109C13.1337 19.7109 15.3537 18.8259 17.0637 17.3559L17.4688 17.7759V18.9609L24.9688 26.4459L27.2038 24.2109L19.7188 16.7109ZM10.7188 16.7109C6.98375 16.7109 3.96875 13.6959 3.96875 9.96094C3.96875 6.22594 6.98375 3.21094 10.7188 3.21094C14.4537 3.21094 17.4688 6.22594 17.4688 9.96094C17.4688 13.6959 14.4537 16.7109 10.7188 16.7109Z" fill="#282828"/>
</svg>
