<svg width="29" height="29" viewBox="0 0 29 29" fill="none" xmlns="http://www.w3.org/2000/svg">
<path d="M7.4946 28.1727C6.51618 28.163 5.65401 27.5237 5.36339 26.6034C5.25683 26.2449 5.26652 25.8962 5.39246 25.5378C5.52808 25.1309 5.77026 24.7918 5.98338 24.4237C6.40962 23.6875 6.83586 22.9609 7.27179 22.2344C7.58178 21.7113 7.90146 21.1979 8.21146 20.6844C8.52145 20.171 8.81207 19.6479 9.12206 19.1345C9.76142 18.0592 10.4105 16.9839 11.0595 15.9183C11.5439 15.1142 12.0186 14.3005 12.5029 13.4965C12.8614 12.8959 13.2295 12.3049 13.5879 11.7043C13.9366 11.1231 14.2757 10.5225 14.6244 9.94123C15.2444 8.89501 15.8644 7.84878 16.4941 6.80255C17.0172 5.94038 17.5403 5.07821 18.0634 4.20636C18.7028 3.14076 19.3325 2.05578 19.9815 0.999868C20.3981 0.321758 21.0181 -0.0172979 21.8221 -0.00761066C22.7521 0.00207663 23.5174 0.651125 23.7596 1.54235C23.9436 2.20109 23.7983 2.81139 23.4592 3.38294C22.7133 4.64229 21.9674 5.91132 21.2215 7.17067C20.6209 8.17815 20.0203 9.18562 19.4197 10.1931C18.635 11.5203 17.8503 12.8571 17.056 14.1843C16.3197 15.4145 15.5835 16.6351 14.8472 17.8654C14.3144 18.7663 13.7816 19.6673 13.2392 20.5682C12.8807 21.1688 12.5126 21.7791 12.1445 22.3797C11.7473 23.0481 11.3501 23.7069 10.953 24.3753C10.4105 25.2762 9.86798 26.1771 9.32549 27.078C9.0155 27.5915 8.58926 27.9596 7.97896 28.0855C7.81428 28.1146 7.64959 28.1436 7.4946 28.1727Z" fill="#282828"/>
<path d="M12.8226 7.47102C12.7935 7.82945 12.7935 8.18788 12.7354 8.53662C12.6385 9.07911 12.4739 9.61191 12.2414 10.1156C11.6408 11.4234 10.6526 12.334 9.36424 12.9443C8.88956 13.1671 8.38582 13.3221 7.86271 13.419C7.2621 13.5353 6.66148 13.5546 6.05119 13.4868C4.37528 13.2931 3.01906 12.5278 1.94378 11.2491C1.37223 10.5709 0.975046 9.78628 0.771613 8.92411C0.616617 8.26538 0.529432 7.58727 0.616617 6.90915C0.655367 6.58947 0.684428 6.26011 0.761927 5.94043C0.878174 5.47544 1.03317 5.02982 1.25598 4.60358C1.82753 3.47017 2.6897 2.608 3.78436 1.97833C4.29779 1.68771 4.84996 1.48428 5.4312 1.35834C6.0415 1.22272 6.6518 1.22272 7.2621 1.27116C8.30832 1.35834 9.26736 1.70708 10.1392 2.31738C11.0692 2.96643 11.7764 3.80922 12.2607 4.83608C12.4642 5.272 12.5998 5.71762 12.6967 6.19229C12.7742 6.61854 12.8032 7.03509 12.8226 7.47102ZM6.7293 4.95232C5.30526 4.98139 4.22997 6.14386 4.22997 7.47102C4.22997 8.73037 5.25683 9.86378 6.70023 9.86378C8.0952 9.86378 9.21893 8.79817 9.21893 7.40321C9.20924 6.04699 8.06614 4.98139 6.7293 4.95232Z" fill="#282828"/>
<path d="M16.5232 20.3551C16.5425 19.6188 16.591 19.0473 16.7557 18.4854C17.0656 17.4392 17.6081 16.5577 18.4025 15.8117C19.1484 15.1143 20.0106 14.6202 20.9987 14.3586C21.6768 14.1746 22.3646 14.1262 23.0524 14.194C24.2536 14.3005 25.3483 14.7268 26.2879 15.5017C27.092 16.1702 27.6926 16.9936 28.0704 17.972C28.2254 18.3692 28.332 18.7761 28.4095 19.2023C28.5063 19.7642 28.5354 20.3163 28.4773 20.8782C28.3707 21.9535 28.0317 22.9319 27.4117 23.8134C27.0629 24.3172 26.6173 24.724 26.1329 25.0922C25.4548 25.6056 24.6895 25.9543 23.8661 26.1481C23.5271 26.2256 23.1783 26.2449 22.8296 26.2837C22.6843 26.3031 22.5486 26.2837 22.4033 26.2837C21.2796 26.274 20.2431 25.9543 19.2937 25.3537C18.2184 24.6659 17.4338 23.7166 16.9494 22.5444C16.7653 22.1085 16.6297 21.6629 16.591 21.1882C16.5716 20.8685 16.5425 20.5391 16.5232 20.3551ZM24.9802 20.2485C24.9995 19.0085 23.8952 17.8654 22.5487 17.8654C21.1731 17.8654 20.1075 19.0473 20.1171 20.2776C20.1268 21.566 21.1924 22.68 22.5777 22.651C23.9533 22.6219 24.9898 21.5369 24.9802 20.2485Z" fill="#282828"/>
</svg>
