<svg width="34" height="34" viewBox="0 0 34 34" fill="none" xmlns="http://www.w3.org/2000/svg">
<path d="M33.7268 7.03571C33.7268 8.01279 33.7268 8.98987 33.7268 9.98132C33.7268 11.0015 33.2077 11.6337 32.4147 11.6194C31.636 11.605 31.1602 11.0015 31.1602 10.0101C31.1602 8.14211 31.1602 6.27417 31.1602 4.42059C31.1602 3.44351 30.9007 3.18487 29.9202 3.18487C28.0457 3.1705 26.1712 3.18487 24.3112 3.18487C23.3162 3.18487 22.7539 2.7107 22.7539 1.90605C22.7683 1.13013 23.3307 0.65596 24.2679 0.641592C26.2577 0.627223 28.2476 0.612854 30.2374 0.641592C32.184 0.670329 33.6835 2.17905 33.7268 4.11884C33.7412 5.06719 33.7268 6.04427 33.7268 7.03571Z" fill="black"/>
<path d="M0.756908 27.0393C0.756908 26.0335 0.742489 25.0276 0.756908 24.0218C0.771327 23.1453 1.27599 22.5849 2.02578 22.5706C2.78999 22.5562 3.3235 23.1453 3.3235 24.0506C3.33792 25.9329 3.3235 27.8296 3.3235 29.7119C3.3235 30.7321 3.58304 30.9907 4.59238 31.0051C6.46685 31.0194 8.34133 31.0051 10.2014 31.0051C11.153 31.0051 11.7154 31.4649 11.7298 32.2408C11.7442 33.0311 11.153 33.534 10.1726 33.5483C8.21156 33.5627 6.23615 33.5627 4.27516 33.5483C2.29975 33.5483 0.785746 32.0109 0.756908 30.0424C0.742489 29.0365 0.742489 28.0451 0.756908 27.0393Z" fill="black"/>
<path d="M0.74469 7.11286C0.74469 6.10704 0.730271 5.10122 0.74469 4.09541C0.787947 2.15562 2.30195 0.632523 4.24852 0.618154C6.26719 0.589417 8.28586 0.603785 10.2901 0.618154C11.2273 0.632523 11.8041 1.20728 11.732 2.01193C11.6599 2.716 11.1552 3.14707 10.3334 3.14707C8.45888 3.16143 6.58441 3.14707 4.72435 3.14707C3.57082 3.14707 3.34012 3.37697 3.34012 4.54084C3.34012 6.35131 3.34012 8.17615 3.34012 9.98662C3.34012 10.9781 2.86429 11.5672 2.08566 11.5959C1.29261 11.6103 0.773528 10.9781 0.773528 9.97225C0.74469 9.02391 0.759109 8.0612 0.74469 7.11286Z" fill="black"/>
<path d="M33.7279 27.068C33.7279 28.0738 33.7423 29.0796 33.7279 30.0854C33.6847 31.9678 32.2572 33.5052 30.3827 33.5483C28.2919 33.6058 26.2012 33.5771 24.1248 33.5483C23.2597 33.534 22.7262 32.9736 22.755 32.212C22.7839 31.4649 23.3029 31.0051 24.1681 31.0051C26.0426 30.9907 27.917 31.0051 29.7771 31.0051C30.9306 31.0051 31.1613 30.7752 31.1613 29.6113C31.1613 27.8008 31.1613 25.976 31.1613 24.1655C31.1613 23.174 31.6372 22.5849 32.4158 22.5706C33.2088 22.5562 33.7279 23.174 33.7279 24.2086C33.7423 25.1569 33.7279 26.1053 33.7279 27.068Z" fill="black"/>
<path d="M5.45312 11.3335C6.16246 11.2128 7.1486 11.1094 8.44616 11.1094C9.88213 11.1094 10.9202 11.4025 11.5949 11.9886C12.235 12.5059 12.6503 13.3506 12.6503 14.3506C12.6503 15.3678 12.3388 16.1953 11.7506 16.7643C10.9548 17.5401 9.74372 17.9194 8.35966 17.9194C7.99634 17.9194 7.66763 17.9021 7.40811 17.8332V21.8847H5.45312V11.3335ZM7.39081 16.2988C7.65032 16.385 7.94444 16.4022 8.34236 16.4022C9.81292 16.4022 10.6953 15.6781 10.6953 14.4368C10.6953 13.2472 9.86482 12.6265 8.51536 12.6265C7.97904 12.6265 7.59842 12.6783 7.39081 12.73V16.2988Z" fill="black"/>
<path d="M15.3708 18.8579L14.4539 21.8922H12.4297L15.8725 11.2031H18.3812L21.8759 21.8922H19.7652L18.7964 18.8579H15.3708ZM18.4504 17.3925L17.6026 14.7547C17.395 14.0995 17.222 13.3754 17.0663 12.7548H17.0317C16.876 13.3754 16.703 14.1168 16.53 14.7547L15.6995 17.3925H18.4504Z" fill="black"/>
<path d="M24.3831 21.8782V17.4129L20.9922 11.1719H23.2413L24.5215 13.9131C24.8849 14.7062 25.1617 15.3096 25.4558 16.0337H25.4904C25.7499 15.3441 26.044 14.6889 26.4073 13.9131L27.7049 11.1719H29.9194L26.3554 17.3612V21.861H24.3831V21.8782Z" fill="black"/>
</svg>
