<svg width="39" height="39" viewBox="0 0 39 39" fill="none" xmlns="http://www.w3.org/2000/svg">
<path d="M16.6929 33.6643C16.6929 35.406 18.1021 36.8151 19.8438 36.8151C21.5854 36.8151 22.9946 35.406 22.9946 33.6643H16.6929ZM19.8438 9.89844C24.2138 9.89844 27.7604 13.4451 27.7604 17.8151V28.8985H11.9271V17.8151C11.9271 13.4451 15.4738 9.89844 19.8438 9.89844ZM19.8438 2.77344C18.5296 2.77344 17.4688 3.83427 17.4688 5.14844V7.00094C12.4971 8.07761 8.76042 12.5109 8.76042 17.8151V27.3151L5.59375 30.4818V32.0651H34.0938V30.4818L30.9271 27.3151V17.8151C30.9271 12.5109 27.1904 8.07761 22.2188 7.00094V5.14844C22.2188 3.83427 21.1579 2.77344 19.8438 2.77344ZM18.2604 13.0651H21.4271V19.3984H18.2604V13.0651ZM18.2604 22.5651H21.4271V25.7318H18.2604V22.5651Z" fill="#282828"/>
</svg>
