<svg width="18" height="29" viewBox="0 0 18 29" fill="none" xmlns="http://www.w3.org/2000/svg">
<g clip-path="url(#clip0_873_17026)">
<path d="M11.2907 5.15093C11.206 6.63034 11.1552 8.10975 11.0029 9.58916C10.9351 10.2665 11.3246 10.1595 11.6801 10.1595C13.2379 10.1774 14.7788 10.1595 16.3365 10.1595C17.6911 10.1595 18.1652 10.9794 17.471 12.2093C14.5078 17.5031 11.5447 22.7969 8.58154 28.0907C8.29369 28.6076 7.97198 29.0354 7.34549 28.9997C6.6682 28.9641 6.27875 28.4115 6.38035 27.5381C6.70206 24.4546 7.05764 21.3888 7.37935 18.3052C7.54867 16.7367 7.75186 16.8793 6.17716 16.8793C4.85644 16.8793 3.51879 16.8971 2.19808 16.8793C0.843495 16.8614 0.420188 16.0772 1.11441 14.8651C2.45206 12.5302 3.80664 10.1952 5.16122 7.87803C6.46501 5.63218 7.76879 3.40415 9.05565 1.1583C9.46202 0.445332 9.88533 -0.19634 10.7658 0.0888477C11.5955 0.356211 11.4939 1.1583 11.46 1.87127C11.4092 2.97637 11.3415 4.06365 11.2907 5.16875C11.2738 5.15093 11.2738 5.15093 11.2907 5.15093Z" fill="#282828"/>
</g>
<defs>
<clipPath id="clip0_873_17026">
<rect width="17" height="29" fill="white" transform="translate(0.773438)"/>
</clipPath>
</defs>
</svg>
