<svg width="30" height="31" viewBox="0 0 30 31" fill="none" xmlns="http://www.w3.org/2000/svg">
<path d="M15.1645 0.914062C7.11445 0.914062 0.595703 7.4474 0.595703 15.4974C0.595703 23.5474 7.11445 30.0807 15.1645 30.0807C23.229 30.0807 29.7624 23.5474 29.7624 15.4974C29.7624 7.4474 23.229 0.914062 15.1645 0.914062ZM25.2707 9.66406H20.9686C20.502 7.84115 19.8311 6.09115 18.9561 4.4724C21.6395 5.39115 23.8707 7.25781 25.2707 9.66406ZM15.179 3.88906C16.3895 5.63906 17.3374 7.57865 17.9645 9.66406H12.3936C13.0207 7.57865 13.9686 5.63906 15.179 3.88906ZM3.89154 18.4141C3.6582 17.4807 3.51237 16.5036 3.51237 15.4974C3.51237 14.4911 3.6582 13.5141 3.89154 12.5807H8.8207C8.70404 13.5432 8.61654 14.5057 8.61654 15.4974C8.61654 16.4891 8.70404 17.4516 8.8207 18.4141H3.89154ZM5.08737 21.3307H9.38945C9.85612 23.1536 10.527 24.9036 11.402 26.5224C8.71862 25.6036 6.48737 23.7516 5.08737 21.3307ZM9.38945 9.66406H5.08737C6.48737 7.24323 8.71862 5.39115 11.402 4.4724C10.527 6.09115 9.85612 7.84115 9.38945 9.66406ZM15.179 27.1057C13.9686 25.3557 13.0207 23.4161 12.3936 21.3307H17.9645C17.3374 23.4161 16.3895 25.3557 15.179 27.1057ZM18.5915 18.4141H11.7665C11.6353 17.4516 11.5332 16.4891 11.5332 15.4974C11.5332 14.5057 11.6353 13.5286 11.7665 12.5807H18.5915C18.7228 13.5286 18.8249 14.5057 18.8249 15.4974C18.8249 16.4891 18.7228 17.4516 18.5915 18.4141ZM18.9561 26.5224C19.8311 24.9036 20.502 23.1536 20.9686 21.3307H25.2707C23.8707 23.737 21.6395 25.6036 18.9561 26.5224ZM21.5374 18.4141C21.654 17.4516 21.7415 16.4891 21.7415 15.4974C21.7415 14.5057 21.654 13.5432 21.5374 12.5807H26.4665C26.6999 13.5141 26.8457 14.4911 26.8457 15.4974C26.8457 16.5036 26.6999 17.4807 26.4665 18.4141H21.5374Z" fill="#282828"/>
</svg>
