<svg width="29" height="28" viewBox="0 0 29 28" fill="none" xmlns="http://www.w3.org/2000/svg">
<path d="M16.6019 10.7993C18.8259 9.09856 21.2054 8.61264 23.7872 9.31115C26.8199 10.1311 28.5152 12.4089 28.5307 15.4611C28.5307 19.1511 28.5307 22.8563 28.5307 26.5462C28.5307 27.6699 28.4218 27.761 27.302 27.761C25.8712 27.761 24.4559 27.761 23.0251 27.761C22.1075 27.761 21.952 27.594 21.952 26.6829C21.9364 23.9799 21.9675 21.2618 21.9209 18.5589C21.9053 17.3744 21.1121 16.4481 20.0079 16.1748C18.857 15.8863 17.5817 16.2963 17.0218 17.2833C16.7263 17.8148 16.5863 18.4829 16.5863 19.0903C16.5397 21.52 16.5708 23.9496 16.5708 26.3792C16.5708 27.7003 16.5086 27.761 15.1866 27.761C13.7869 27.761 12.3871 27.7458 10.9874 27.761C10.2564 27.7762 9.96094 27.4725 9.96094 26.7588C9.97649 21.1707 9.97649 15.5674 9.96094 9.9793C9.96094 9.28078 10.2409 8.96189 10.9719 8.97708C12.4027 9.00745 13.818 8.99226 15.2488 8.99226C16.4464 8.99226 16.5241 9.06819 16.5552 10.2223C16.5708 10.3893 16.5863 10.5411 16.6019 10.7993ZM11.2518 26.4703C12.636 26.4703 13.9268 26.4703 15.2955 26.4703C15.2955 26.121 15.2955 25.8477 15.2955 25.5744C15.2955 23.327 15.2799 21.0796 15.2955 18.817C15.311 17.0252 16.2597 15.6889 17.8461 15.1119C20.3967 14.1704 23.0718 15.8863 23.1495 18.5437C23.2117 20.9733 23.1651 23.4029 23.1806 25.8325C23.1806 26.1362 23.0562 26.5462 23.6161 26.5462C24.7981 26.5462 25.9801 26.5462 27.1932 26.5462C27.2243 26.3336 27.2554 26.2122 27.2554 26.0907C27.2554 22.3248 27.3021 18.5589 27.2087 14.793C27.1932 14.0337 26.8821 13.1682 26.4311 12.5456C23.8805 9.00745 18.0638 9.85781 16.5863 12.8796C16.4619 13.1378 16.0109 13.2441 15.7154 13.4263C15.5754 13.1378 15.3266 12.8493 15.311 12.5456C15.2488 11.8015 15.2955 11.0423 15.2955 10.283C13.8802 10.283 12.5893 10.283 11.2518 10.283C11.2518 15.7041 11.2518 21.0492 11.2518 26.4703Z" fill="url(#paint0_linear_466_85)"/>
<path d="M6.01024 10.2664C4.61051 10.2664 3.31964 10.2664 1.98212 10.2664C1.98212 15.6723 1.98212 21.0478 1.98212 26.4841C3.30409 26.4841 4.61051 26.4841 6.01024 26.4841C6.01024 26.1804 6.01024 25.907 6.01024 25.6337C6.01024 22.293 6.01024 18.9523 6.01024 15.6115C6.01024 15.3838 5.94803 15.1256 6.04134 14.9434C6.16576 14.7156 6.4146 14.3815 6.61679 14.3815C6.83452 14.3815 7.08337 14.6852 7.22334 14.913C7.31665 15.0649 7.25444 15.3078 7.25444 15.5052C7.25444 19.1952 7.25444 22.8852 7.25444 26.5752C7.25444 27.6229 7.13002 27.7444 6.04134 27.7444C4.59495 27.7444 3.13301 27.7292 1.68663 27.7596C0.971207 27.7748 0.660156 27.5015 0.660156 26.7878C0.675709 21.1693 0.675709 15.566 0.660156 9.94749C0.660156 9.27935 0.92455 8.97565 1.63997 8.99083C3.19522 9.0212 4.75048 9.00602 6.30574 8.99083C6.95894 8.97565 7.27 9.24898 7.25444 9.88675C7.23889 10.6156 7.3011 11.3597 7.22334 12.0886C7.19223 12.3467 6.88118 12.7415 6.63234 12.8023C6.13466 12.9086 6.01024 12.4986 6.01024 12.0734C6.01024 11.4964 6.01024 10.9193 6.01024 10.2664Z" fill="url(#paint1_linear_466_85)"/>
<path d="M3.92627 0.593873C5.71481 0.578688 7.20786 1.97572 7.23896 3.73719C7.28562 5.48347 5.74592 7.00198 3.94182 7.00198C2.15328 7.00198 0.691334 5.5594 0.675781 3.79793C0.675781 2.03646 2.12217 0.609058 3.92627 0.593873ZM1.95109 3.81311C1.96664 4.90644 2.88425 5.78717 3.98848 5.77199C5.09271 5.7568 6.01031 4.83051 5.99476 3.76756C5.97921 2.68942 5.0616 1.80868 3.94182 1.82387C2.80648 1.82387 1.93554 2.7046 1.95109 3.81311Z" fill="url(#paint2_linear_466_85)"/>
<defs>
<linearGradient id="paint0_linear_466_85" x1="9.96094" y1="18.3691" x2="28.5307" y2="18.3691" gradientUnits="userSpaceOnUse">
<stop stop-color="#F73973"/>
<stop offset="1" stop-color="#FEAC01"/>
</linearGradient>
<linearGradient id="paint1_linear_466_85" x1="0.660156" y1="18.3752" x2="7.27476" y2="18.3752" gradientUnits="userSpaceOnUse">
<stop stop-color="#F73973"/>
<stop offset="1" stop-color="#FEAC01"/>
</linearGradient>
<linearGradient id="paint2_linear_466_85" x1="0.675781" y1="3.79787" x2="7.24" y2="3.79787" gradientUnits="userSpaceOnUse">
<stop stop-color="#F73973"/>
<stop offset="1" stop-color="#FEAC01"/>
</linearGradient>
</defs>
</svg>
