<svg width="25" height="25" viewBox="0 0 25 25" fill="none" xmlns="http://www.w3.org/2000/svg">
<path d="M12.1445 6.25938C13.3045 6.25938 14.2445 7.19938 14.2445 8.35938C14.2445 9.51937 13.3045 10.4594 12.1445 10.4594C10.9845 10.4594 10.0445 9.51937 10.0445 8.35938C10.0445 7.19938 10.9845 6.25938 12.1445 6.25938ZM12.1445 15.2594C15.1145 15.2594 18.2445 16.7194 18.2445 17.3594V18.4594H6.04453V17.3594C6.04453 16.7194 9.17453 15.2594 12.1445 15.2594ZM12.1445 4.35938C9.93453 4.35938 8.14453 6.14937 8.14453 8.35938C8.14453 10.5694 9.93453 12.3594 12.1445 12.3594C14.3545 12.3594 16.1445 10.5694 16.1445 8.35938C16.1445 6.14937 14.3545 4.35938 12.1445 4.35938ZM12.1445 13.3594C9.47453 13.3594 4.14453 14.6994 4.14453 17.3594V20.3594H20.1445V17.3594C20.1445 14.6994 14.8145 13.3594 12.1445 13.3594Z" fill="#282828"/>
</svg>
