<svg width="50" height="50" viewBox="0 0 50 50" fill="none" xmlns="http://www.w3.org/2000/svg">
<path d="M32.185 21.3236C32.185 13.8657 26.7406 8.58559 19.858 8.58559C12.9754 8.58559 7.5309 13.8657 7.5309 21.3236C7.5309 26.1311 11.5372 32.5001 19.858 40.1018C28.1787 32.5001 32.185 26.1311 32.185 21.3236ZM19.858 4.47656C28.4869 4.47656 36.2941 11.0921 36.2941 21.3236C36.2941 28.1445 30.8085 36.2188 19.858 45.5668C8.90742 36.2188 3.42188 28.1445 3.42188 21.3236C3.42188 11.0921 11.229 4.47656 19.858 4.47656Z" fill="url(#paint0_linear_791_41542)"/>
<path d="M23.3691 19.5443C23.3691 21.4835 21.7971 23.0555 19.858 23.0555C17.9188 23.0555 16.3468 21.4835 16.3468 19.5443C16.3468 17.6052 17.9188 16.0332 19.858 16.0332C21.7971 16.0332 23.3691 17.6052 23.3691 19.5443Z" fill="url(#paint1_linear_791_41542)"/>
<defs>
<linearGradient id="paint0_linear_791_41542" x1="3.42188" y1="25.0217" x2="36.2941" y2="25.0217" gradientUnits="userSpaceOnUse">
<stop stop-color="#F73973"/>
<stop offset="1" stop-color="#FEAC01"/>
</linearGradient>
<linearGradient id="paint1_linear_791_41542" x1="3.42188" y1="25.0217" x2="36.2941" y2="25.0217" gradientUnits="userSpaceOnUse">
<stop stop-color="#F73973"/>
<stop offset="1" stop-color="#FEAC01"/>
</linearGradient>
</defs>
</svg>
