<svg width="38" height="38" viewBox="0 0 38 38" fill="none" xmlns="http://www.w3.org/2000/svg">
<path d="M15.7675 32.2032C15.7675 33.8794 17.1237 35.2355 18.7998 35.2355C20.4759 35.2355 21.8321 33.8794 21.8321 32.2032H15.7675ZM18.7998 9.33154C23.0054 9.33154 26.4186 12.7448 26.4186 16.9504V27.6167H11.181V16.9504C11.181 12.7448 14.5942 9.33154 18.7998 9.33154ZM18.7998 2.47461C17.5351 2.47461 16.5142 3.49553 16.5142 4.76025V6.54306C11.7295 7.57922 8.13346 11.8458 8.13346 16.9504V26.0929L5.08594 29.1405V30.6642H32.5137V29.1405L29.4661 26.0929V16.9504C29.4661 11.8458 25.8701 7.57922 21.0854 6.54306V4.76025C21.0854 3.49553 20.0645 2.47461 18.7998 2.47461ZM17.276 12.3791H20.3236V18.4741H17.276V12.3791ZM17.276 21.5216H20.3236V24.5692H17.276V21.5216Z" fill="#282828"/>
</svg>
