<svg width="34" height="17" viewBox="0 0 34 17" fill="none" xmlns="http://www.w3.org/2000/svg">
<g clip-path="url(#clip0_40_6)">
<path d="M17.0066 -0.19326C19.7261 -0.101106 22.3129 0.530805 24.7803 1.61032C28.0702 3.05845 30.9488 5.11216 33.4693 7.63981C34.1591 8.33755 34.1724 8.54818 33.4959 9.21959C29.808 12.8662 25.5762 15.5914 20.4026 16.6577C16.2239 17.5134 12.284 16.7367 8.49 14.9463C5.50521 13.5376 2.89187 11.6156 0.570372 9.28541C-0.185773 8.53502 -0.199039 8.33754 0.543841 7.61348C4.24497 3.97999 8.47673 1.26804 13.6636 0.228014C14.7647 0.00421224 15.8923 -0.061612 17.0066 -0.19326ZM16.9933 15.6835C21.0128 15.6835 24.2895 12.4318 24.2895 8.45603C24.2895 4.46709 21.0128 1.21538 17.0066 1.21538C12.9871 1.21538 9.71044 4.46709 9.71044 8.44286C9.69718 12.4186 12.9738 15.6704 16.9933 15.6835ZM23.2813 2.4792C24.7936 4.21696 25.6293 6.19168 25.6293 8.48236C25.6293 10.7599 24.7538 12.7083 23.2813 14.4197C26.7834 13.09 29.7549 11.0495 32.4081 8.44286C29.7151 5.82306 26.7569 3.76935 23.2813 2.4792ZM10.7054 2.4792C7.22976 3.78252 4.2715 5.83623 1.6051 8.44286C4.28477 11.0627 7.24302 13.1164 10.8248 14.4987C7.20322 10.3913 7.9859 5.44128 10.7054 2.4792Z" fill="#282828"/>
<path d="M17.02 5.15166C18.8506 5.16483 20.3364 6.65245 20.3099 8.48236C20.2966 10.2991 18.771 11.7604 16.9404 11.7341C15.1362 11.7077 13.677 10.2333 13.677 8.44287C13.6903 6.61296 15.1893 5.1385 17.02 5.15166Z" fill="#282828"/>
</g>
<defs>
<clipPath id="clip0_40_6">
<rect width="34" height="17" fill="white"/>
</clipPath>
</defs>
</svg>
