<svg width="43" height="42" viewBox="0 0 43 42" fill="none" xmlns="http://www.w3.org/2000/svg">
<path d="M16.2217 3.94824C19.773 2.6663 23.4014 2.65148 26.9521 3.875H26.9512C28.6828 4.46765 29.9737 5.54045 30.752 6.93652C31.4807 8.24392 31.7519 9.81937 31.5332 11.5225L31.4824 11.8643C31.377 12.5077 31.2352 13.1603 31.1035 13.8262C31.7902 14.1754 32.2687 14.5817 32.5176 15.1543C32.7565 15.704 32.7635 16.363 32.6162 17.1836C32.7965 17.196 32.9625 17.207 33.1367 17.207H40.6865C40.7413 17.207 40.7985 17.2047 40.8633 17.2021C40.9257 17.1997 40.9954 17.1972 41.0645 17.1982C41.1644 17.1997 41.2836 17.2087 41.4004 17.2471L41.5156 17.2959L41.5264 17.3018L41.626 17.3672C41.7269 17.4386 41.8307 17.5284 41.917 17.624C41.9747 17.6879 42.0307 17.761 42.0723 17.8398C42.1123 17.9158 42.1505 18.0193 42.1416 18.1348V18.1455L41.8809 18.1152L42.1406 18.1455C42.118 18.3375 42.0158 18.5094 41.9072 18.6426C41.7961 18.7788 41.6582 18.8977 41.5264 18.9883L41.5273 18.9893C41.3809 19.0915 41.1997 19.0975 41.084 19.0957C41.0195 19.0947 40.9526 19.0896 40.8965 19.0859C40.8374 19.0821 40.7881 19.0791 40.7441 19.0791C37.9136 19.0791 35.0929 19.0941 32.2588 19.0654C32.0057 19.0655 31.8914 19.101 31.8389 19.1416C31.815 19.1601 31.7787 19.1995 31.7646 19.3135L31.7598 19.4551V19.459C31.7673 20.053 31.6695 20.6076 31.3955 21.0703C31.1229 21.5306 30.6896 21.8733 30.0732 22.0781C30.0676 22.0858 30.0596 22.0976 30.0508 22.1143C30.0384 22.1377 30.0272 22.1654 30.0186 22.1924C30.0099 22.2196 30.0053 22.2412 30.0039 22.2549L30.0029 22.2666L29.7432 22.2295L30.002 22.2666C29.8144 23.561 29.5335 24.89 28.457 25.917L28.4482 25.9248C28.4554 25.9186 28.4347 25.9361 28.4189 26.0117C28.412 26.0451 28.4081 26.0813 28.4062 26.1172L28.4082 26.2207L28.4092 26.2344H28.4082C28.4263 26.7624 28.4411 27.1387 28.4814 27.4258C28.5213 27.7097 28.583 27.873 28.6738 27.9902C28.765 28.1078 28.9088 28.2093 29.1748 28.3213C29.4434 28.4343 29.8039 28.5455 30.3086 28.7012H30.3076C31.7743 29.1455 33.2416 29.5897 34.6943 30.0342L34.6963 30.0352C35.6041 30.3193 36.3044 30.765 36.7754 31.3994C37.2466 32.0342 37.4687 32.8318 37.4688 33.7832C37.4688 34.3762 37.4832 34.9755 37.4688 35.5811V35.584C37.4528 36.06 37.3121 36.4697 37.0234 36.7686C36.735 37.0672 36.3289 37.2229 35.8447 37.2549L35.8457 37.2559C35.6471 37.2711 35.41 37.2569 35.251 37.2568H8.22852C7.43136 37.2568 6.82976 37.1757 6.45312 36.7959C6.07744 36.4168 5.9961 35.8106 5.99609 35.002V33.5635C6.01135 32.7349 6.24458 31.9992 6.68555 31.4033C7.12652 30.8075 7.76427 30.3658 8.56445 30.1074H8.56641C10.5086 29.4908 12.4512 28.8874 14.3945 28.3135C14.5944 28.2537 14.702 28.1926 14.7637 28.125C14.8185 28.0649 14.8632 27.971 14.8691 27.7832V27.7783C14.8839 27.4838 14.9143 27.1821 14.9756 26.8916L14.9766 26.8838C15.1104 26.3255 14.9658 25.9142 14.5947 25.3389L14.5938 25.3379C14.3095 24.8937 14.1219 24.3986 13.9619 23.9092C13.798 23.408 13.6684 22.9322 13.4912 22.4658V22.4648C13.4515 22.3593 13.4015 22.2494 13.3438 22.1602C13.2828 22.066 13.2319 22.0245 13.2021 22.0117L13.1924 22.0078C12.7345 21.7912 12.3778 21.5047 12.1289 21.1338C11.8802 20.7629 11.7507 20.3241 11.7197 19.8223V19.8213C11.705 19.5651 11.6946 19.3947 11.6729 19.2725C11.6511 19.1503 11.6256 19.1252 11.6211 19.1211C11.615 19.1156 11.5852 19.0928 11.46 19.0791C11.3337 19.0653 11.1611 19.0654 10.9033 19.0654H2.83594V19.0645C2.70799 19.0577 2.5783 19.0644 2.41309 19.0645C2.26093 19.0645 2.08632 19.058 1.92383 19.0176C1.75734 18.9761 1.58299 18.8936 1.45801 18.7256C1.33409 18.5589 1.28456 18.344 1.29297 18.0918C1.29785 17.8427 1.36012 17.6332 1.49121 17.4736C1.62319 17.3132 1.79933 17.235 1.96777 17.1973C2.13289 17.1604 2.30842 17.1587 2.46289 17.1631C2.63418 17.168 2.75631 17.1777 2.8916 17.1777C5.36585 17.1634 7.82763 17.1787 10.2988 17.1787H10.8076C10.6749 16.4977 10.6525 15.8498 10.8291 15.2871C11.0226 14.6708 11.4461 14.185 12.1484 13.874C12.0294 12.5123 11.7936 11.1363 11.8633 9.78711C11.9231 8.37285 12.3372 7.15596 13.0811 6.16797C13.8248 5.18014 14.8873 4.43658 16.2207 3.94922L16.2217 3.94824ZM28.501 30.1504C28.4679 30.1548 28.4264 30.1651 28.3828 30.1826C28.3393 30.2001 28.2993 30.2224 28.2686 30.2441C28.2535 30.2548 28.2424 30.2647 28.2344 30.2725L28.2236 30.2832C27.332 31.6841 26.0325 32.46 24.5049 32.874L24.5059 32.875C22.954 33.3022 21.3909 33.3306 19.8359 33.082H19.835C17.9626 32.7734 16.2848 32 15.1963 30.252L15.1982 30.2559C15.1957 30.2535 15.1881 30.2464 15.1719 30.2363C15.1439 30.219 15.1044 30.2001 15.0576 30.1846C15.0113 30.1692 14.9635 30.159 14.9219 30.1543C14.882 30.1498 14.8576 30.1525 14.8477 30.1543C12.8989 30.7258 10.9777 31.3255 9.04102 31.9404L9.03906 31.9414C8.3503 32.1536 7.95808 32.6537 7.87012 33.3301C7.7956 33.9782 7.8413 34.6168 7.85254 35.3418H35.5986C35.61 34.6298 35.6549 34.005 35.5801 33.3701V33.3682C35.5042 32.6872 35.1215 32.165 34.4404 31.9551H34.4385C32.4827 31.3387 30.515 30.7229 28.5479 30.1504L28.5381 30.1475L28.501 30.1504ZM16.8516 27.2002C16.6427 28.0535 16.6397 28.695 16.8232 29.2012C17.0288 29.7678 17.4884 30.2167 18.2949 30.6084L18.543 30.7236C19.1292 30.9798 19.7712 31.1596 20.4014 31.2441H20.4004C22.1666 31.4712 23.8845 31.4464 25.3711 30.4814L25.6787 30.2725C26.3431 29.8009 26.6434 29.4279 26.751 29.0117C26.8633 28.5768 26.7807 28.0474 26.5469 27.2217C26.0827 27.5633 25.6627 27.8561 25.2969 28.2207C24.2599 29.2615 22.9942 29.7918 21.7197 29.79C20.4479 29.7881 19.188 29.2561 18.1592 28.2119L17.9854 28.0566C17.8066 27.9039 17.6135 27.7573 17.4072 27.6064C17.2307 27.4773 17.0437 27.342 16.8516 27.2002ZM13.582 19.7129C13.5761 19.9249 13.6294 20.061 13.7021 20.1426C13.7725 20.2214 13.8905 20.2829 14.0859 20.2891C14.4935 20.2972 14.8183 20.4179 15.0303 20.6807C15.233 20.9321 15.2927 21.266 15.293 21.6104C15.2999 22.4941 15.4766 23.258 15.8418 23.9043C16.2062 24.5491 16.7679 25.0932 17.5713 25.5244C18.3478 25.9413 19.0201 26.5372 19.6699 27.0723L19.6719 27.0742C20.4067 27.6903 21.1116 27.9598 21.79 27.9375C22.4702 27.9151 23.169 27.5978 23.8867 26.9512C24.3714 26.5107 24.9132 26.0279 25.5244 25.7227L25.8467 25.5469C26.575 25.1229 27.1291 24.6139 27.5098 24.0117C27.9439 23.325 28.1632 22.4986 28.1426 21.5029V21.502C28.1348 21.1626 28.2112 20.8523 28.4238 20.625C28.6377 20.3964 28.9468 20.2973 29.3047 20.2891L29.4551 20.2744C29.5888 20.2497 29.6726 20.1977 29.7256 20.1377C29.798 20.0557 29.8518 19.9145 29.8398 19.6777L29.835 19.2686C29.8356 19.2197 29.8361 19.1708 29.8369 19.1221H13.582V19.7129ZM16.5908 9.74609C16.4436 9.94328 16.291 10.1351 16.1611 10.3096C15.9634 10.5752 15.8024 10.823 15.708 11.0801V11.083C15.3672 11.9854 15.097 12.9205 14.8438 13.8652L14.5938 14.8125C14.5121 15.1231 14.3936 15.4159 14.1553 15.5928C13.9032 15.7798 13.5867 15.7896 13.2305 15.7031C13.1577 15.6862 13.0149 15.6884 12.876 15.7139C12.8308 15.7221 12.7933 15.732 12.7646 15.7412C12.6897 16.1132 12.68 16.5212 12.7178 16.9121L12.7334 16.9961C12.7558 17.0682 12.7959 17.1058 12.8428 17.1328C12.9236 17.1792 13.0551 17.207 13.2471 17.207L30.1162 17.1934L30.2051 17.1875C30.4076 17.1639 30.5743 17.0595 30.6904 16.8975C30.8251 16.7095 30.8982 16.4332 30.8496 16.1045L30.8311 16.0068C30.7828 15.7987 30.7017 15.7216 30.6318 15.6885C30.5318 15.641 30.3583 15.6336 30.0732 15.7148H30.0723C29.7503 15.8053 29.4482 15.7986 29.2021 15.6104C28.9741 15.4359 28.8518 15.1458 28.7695 14.8252V14.8242C28.4265 13.4563 28.0265 12.1048 27.542 10.7832L27.4727 10.6338C27.393 10.4854 27.2818 10.3385 27.1475 10.1797C27.0374 10.0496 26.9051 9.90228 26.7744 9.74902C25.6077 11.0102 23.6563 11.6359 21.7295 11.6445C19.8018 11.6531 17.821 11.0444 16.5908 9.74609ZM25.4082 5.33887C23.4189 4.84667 21.3961 4.81726 19.3779 5.07227L19.377 5.07129C17.8438 5.26955 16.4104 5.66249 15.2461 6.67285H15.2451C14.6131 7.21663 14.1057 8.13239 13.8398 9.10059C13.6614 9.75064 13.602 10.3974 13.668 10.9473C13.7613 10.7163 13.8716 10.4797 14.0264 10.2637C14.5141 9.5489 15.0447 8.79867 15.6982 8.17676C16.0432 7.84966 16.4732 7.69635 16.8965 7.73633C17.2673 7.77143 17.6155 7.95271 17.8828 8.26172L17.9922 8.40234L17.9941 8.40527C18.2894 8.83722 18.8106 9.18296 19.4795 9.4209C20.1451 9.65765 20.9343 9.7794 21.7295 9.78027C22.5244 9.7811 23.3144 9.66105 23.9834 9.4248C24.5717 9.217 25.0495 8.92552 25.3623 8.56348L25.4863 8.40332C25.7575 8.0074 26.145 7.78031 26.5664 7.74023C26.9857 7.70043 27.4142 7.84775 27.7705 8.15332H27.7715C28.1882 8.51258 28.5589 8.93657 28.8906 9.37109L29.21 9.80762L29.2139 9.81348L29.2188 9.82129C29.3869 10.0956 29.5226 10.3892 29.6562 10.6953C29.676 10.7405 29.6951 10.7863 29.7148 10.832C29.7612 9.44676 29.4352 8.29176 28.7764 7.39062C28.0622 6.41387 26.9386 5.70762 25.4102 5.33887H25.4082Z" fill="#FDFDFD" stroke="#FDFDFD" stroke-width="0.524651"/>
<path d="M39.1182 0.330078H39.1211C40.0014 0.345472 40.7621 0.658505 41.3057 1.19824C41.8484 1.73725 42.16 2.48776 42.1689 3.35156C42.1978 4.43139 42.1836 5.51449 42.1836 6.58496C42.1836 7.46207 42.2125 8.35212 42.1689 9.24902V9.25C42.1628 9.36994 42.1752 9.5085 42.1865 9.68164C42.197 9.84239 42.206 10.0314 42.1787 10.208C42.1508 10.3881 42.0802 10.5847 41.9082 10.7305C41.7368 10.8757 41.5049 10.9368 41.2266 10.9326C40.9468 10.9284 40.7164 10.8585 40.5498 10.7051C40.3836 10.552 40.32 10.3517 40.2979 10.1699C40.2761 9.99086 40.2914 9.80048 40.3066 9.63965C40.323 9.46639 40.339 9.33046 40.3359 9.21484V9.21387C40.2927 7.40368 40.3213 5.57553 40.3213 3.76074C40.3213 3.11302 40.2031 2.75165 39.9932 2.54102C39.809 2.3563 39.5081 2.24062 39 2.20996L38.7686 2.20215H32.8037C32.5709 2.20215 32.2668 2.19973 32.0234 2.08105C31.8919 2.01681 31.7739 1.91749 31.6924 1.77148C31.6126 1.62862 31.5771 1.45804 31.5771 1.26562C31.5772 1.07471 31.6148 0.905595 31.6963 0.763672C31.7791 0.619627 31.897 0.521347 32.0273 0.457031C32.2714 0.336587 32.573 0.330078 32.8037 0.330078C34.9006 0.330077 37.0177 0.315741 39.1182 0.330078Z" fill="#FDFDFD" stroke="#FDFDFD" stroke-width="0.524651"/>
<path d="M2.14746 30.6992C2.33724 30.6949 2.50685 30.7264 2.65039 30.8037C2.797 30.8828 2.89816 30.999 2.96387 31.1299C3.08577 31.3729 3.0918 31.6796 3.0918 31.9219V37.8711C3.09182 38.5518 3.20804 38.9203 3.41895 39.1309C3.63031 39.3416 4.001 39.458 4.68457 39.458H10.7109C10.9236 39.458 11.1778 39.4742 11.3916 39.5869C11.6307 39.7131 11.782 39.9383 11.8193 40.2637V40.2646C11.8538 40.5744 11.7893 40.8539 11.5898 41.0527C11.3962 41.2458 11.122 41.3154 10.8398 41.3154C8.54556 41.3154 6.23531 41.3589 3.94336 41.2871C2.42011 41.2392 1.27611 39.9189 1.24414 38.4082L1.23242 37.5811C1.22764 36.7521 1.24007 35.9197 1.22949 35.1074V31.9502C1.2295 31.7129 1.2373 31.4106 1.35449 31.165C1.41697 31.0343 1.51234 30.9148 1.65332 30.8291C1.7926 30.7445 1.95887 30.7036 2.14746 30.6992Z" fill="#FDFDFD" stroke="#FDFDFD" stroke-width="0.524651"/>
<path d="M41.2422 30.7061C41.4298 30.7061 41.5968 30.7427 41.7383 30.8213C41.8818 30.9011 41.9833 31.0151 42.0508 31.1445C42.1783 31.389 42.1879 31.6905 42.1807 31.9365C42.1664 33.0083 42.1807 34.0618 42.1807 35.1406C42.1807 36.1675 42.1951 37.1924 42.1807 38.2266C42.1726 39.117 41.8668 39.8839 41.3242 40.4307C40.7811 40.9778 40.0185 41.2872 39.1309 41.2949H39.1299C37.0294 41.3093 34.9123 41.2949 32.8154 41.2949C32.5787 41.2949 32.2762 41.2879 32.0332 41.167C31.9029 41.102 31.7863 41.0028 31.7051 40.8584C31.6253 40.7165 31.5889 40.5483 31.5889 40.3584C31.5889 40.1649 31.6256 39.9941 31.708 39.8516C31.7922 39.7062 31.9128 39.6101 32.0449 39.5488C32.2888 39.4357 32.5924 39.4365 32.8154 39.4365H38.7686C39.4188 39.4365 39.7768 39.3187 39.9844 39.1094C40.1932 38.8985 40.3113 38.5334 40.3184 37.876V31.9434C40.3184 31.7104 40.322 31.4058 40.4375 31.1611C40.4997 31.0295 40.5961 30.9101 40.7402 30.8262C40.882 30.7437 41.0512 30.7061 41.2422 30.7061Z" fill="#FDFDFD" stroke="#FDFDFD" stroke-width="0.524651"/>
<path d="M10.5996 0.345703C10.8365 0.345703 11.1388 0.35252 11.3818 0.473633C11.5122 0.538611 11.6287 0.637738 11.71 0.782227C11.7895 0.923912 11.8251 1.09169 11.8252 1.28125C11.8252 1.47458 11.7894 1.64563 11.707 1.78809C11.6229 1.93343 11.5021 2.02951 11.3701 2.09082C11.1263 2.20394 10.8226 2.20312 10.5996 2.20312H4.63184C3.98175 2.20312 3.62358 2.32104 3.41602 2.53027C3.20712 2.74114 3.08905 3.10701 3.08203 3.76465V9.71094C3.08203 9.94391 3.07844 10.2484 2.96289 10.4932C2.90067 10.6249 2.80449 10.7452 2.66016 10.8291C2.51837 10.9115 2.34919 10.9482 2.1582 10.9482C1.97057 10.9482 1.80357 10.9116 1.66211 10.833C1.5187 10.7533 1.41809 10.639 1.35059 10.5098C1.22302 10.2652 1.21248 9.9638 1.21973 9.71777L1.23438 8.91602C1.24243 8.11331 1.23438 7.30994 1.23438 6.5C1.23438 5.48265 1.23364 4.44855 1.24805 3.42871C1.25596 2.53237 1.55758 1.76226 2.09668 1.21289C2.63647 0.662866 3.39612 0.353401 4.28418 0.345703C6.38483 0.331361 8.50253 0.345702 10.5996 0.345703Z" fill="#FDFDFD" stroke="#FDFDFD" stroke-width="0.524651"/>
</svg>
