<svg width="45" height="45" viewBox="0 0 45 45" fill="none" xmlns="http://www.w3.org/2000/svg">
<path d="M18.2305 12.7422V18.2422H12.7305V12.7422H18.2305ZM20.9805 9.99219H9.98047V20.9922H20.9805V9.99219ZM18.2305 27.4089V32.9089H12.7305V27.4089H18.2305ZM20.9805 24.6589H9.98047V35.6589H20.9805V24.6589ZM32.8971 12.7422V18.2422H27.3971V12.7422H32.8971ZM35.6471 9.99219H24.6471V20.9922H35.6471V9.99219ZM24.6471 24.6589H27.3971V27.4089H24.6471V24.6589ZM27.3971 27.4089H30.1471V30.1589H27.3971V27.4089ZM30.1471 24.6589H32.8971V27.4089H30.1471V24.6589ZM24.6471 30.1589H27.3971V32.9089H24.6471V30.1589ZM27.3971 32.9089H30.1471V35.6589H27.3971V32.9089ZM30.1471 30.1589H32.8971V32.9089H30.1471V30.1589ZM32.8971 27.4089H35.6471V30.1589H32.8971V27.4089ZM32.8971 32.9089H35.6471V35.6589H32.8971V32.9089ZM41.1471 13.6589H37.4805V8.15885H31.9805V4.49219H41.1471V13.6589ZM41.1471 41.1589V31.9922H37.4805V37.4922H31.9805V41.1589H41.1471ZM4.48047 41.1589H13.6471V37.4922H8.14714V31.9922H4.48047V41.1589ZM4.48047 4.49219V13.6589H8.14714V8.15885H13.6471V4.49219H4.48047Z" fill="#FDFDFD"/>
</svg>
