<svg width="30" height="34" viewBox="0 0 30 34" fill="none" xmlns="http://www.w3.org/2000/svg">
<path d="M0.691406 16.9054C0.691406 12.5327 0.691406 8.16004 0.691406 3.78734C0.691406 1.54633 1.78042 0.507812 4.11401 0.507812C11.5108 0.507812 18.9076 0.507812 26.3185 0.507812C28.6096 0.507812 29.7128 1.57366 29.7128 3.76001C29.7128 12.6421 29.7128 21.5241 29.7128 30.3925C29.7128 32.4832 27.7611 33.877 25.8376 33.1801C25.4558 33.0434 25.088 32.7975 24.7486 32.5515C21.8493 30.4471 18.9358 28.3564 16.0648 26.2248C15.485 25.7875 15.1031 25.8285 14.5374 26.2384C11.5391 28.4384 8.51247 30.6111 5.48588 32.7838C3.77458 34.0136 1.49756 33.3851 0.861122 31.513C0.719692 31.0894 0.705549 30.6248 0.705549 30.1739C0.691406 25.7328 0.691406 21.3191 0.691406 16.9054ZM3.223 16.9191C3.223 21.3191 3.223 25.7055 3.23714 30.1055C3.23714 30.3925 3.40686 30.6794 3.49172 30.9664C3.76043 30.8571 4.07158 30.8024 4.28372 30.6385C7.29618 28.4794 10.2803 26.3067 13.2787 24.1341C14.693 23.1092 15.8951 23.1092 17.3377 24.1477C20.2936 26.2931 23.2495 28.4521 26.2053 30.5838C26.4458 30.7478 26.7711 30.7888 27.0539 30.8981C27.1388 30.6248 27.2802 30.3652 27.2802 30.0919C27.2943 21.3191 27.2943 12.5601 27.2943 3.78734C27.2943 2.92646 27.2661 2.88547 26.3892 2.88547C18.9924 2.88547 11.5815 2.88547 4.18472 2.88547C3.223 2.88547 3.20886 2.89913 3.20886 3.85566C3.223 8.22836 3.223 12.5737 3.223 16.9191Z" fill="#282828"/>
</svg>
