<svg width="25" height="25" viewBox="0 0 25 25" fill="none" xmlns="http://www.w3.org/2000/svg">
<path d="M3.86719 12.3324C3.86719 9.76722 3.86719 7.20201 3.86719 4.6368C3.86719 3.32213 4.50605 2.71289 5.87503 2.71289C10.2143 2.71289 14.5536 2.71289 18.9011 2.71289C20.2452 2.71289 20.8924 3.33816 20.8924 4.62077C20.8924 9.83135 20.8924 15.0419 20.8924 20.2445C20.8924 21.471 19.7474 22.2887 18.619 21.8798C18.395 21.7997 18.1793 21.6554 17.9802 21.5111C16.2793 20.2766 14.5701 19.0501 12.8859 17.7995C12.5457 17.543 12.3217 17.5671 11.9898 17.8076C10.2309 19.0982 8.45536 20.3728 6.67983 21.6474C5.6759 22.3688 4.34011 22.0001 3.96675 20.9018C3.88378 20.6533 3.87548 20.3808 3.87548 20.1162C3.86719 17.511 3.86719 14.9217 3.86719 12.3324ZM5.35233 12.3404C5.35233 14.9217 5.35233 17.4949 5.36062 20.0762C5.36062 20.2445 5.46019 20.4128 5.50997 20.5812C5.66761 20.5171 5.85014 20.485 5.97459 20.3888C7.74182 19.1222 9.49246 17.8476 11.2514 16.573C12.0811 15.9718 12.7863 15.9718 13.6326 16.5811C15.3666 17.8396 17.1007 19.1062 18.8347 20.3567C18.9758 20.4529 19.1666 20.477 19.3325 20.5411C19.3823 20.3808 19.4653 20.2285 19.4653 20.0681C19.4736 14.9217 19.4736 9.78325 19.4736 4.6368C19.4736 4.13177 19.457 4.10772 18.9426 4.10772C14.6033 4.10772 10.2558 4.10772 5.91651 4.10772C5.35233 4.10772 5.34403 4.11574 5.34403 4.67688C5.35233 7.24209 5.35233 9.79127 5.35233 12.3404Z" fill="white"/>
</svg>
