<svg width="34" height="28" viewBox="0 0 34 28" fill="none" xmlns="http://www.w3.org/2000/svg">
<path d="M16.6087 4.28125L13.5938 8.03125H19.5938L16.6087 4.28125ZM25.5938 11.0312V17.0312L29.3438 14.0463L25.5938 11.0312ZM7.59375 11.0312L3.84375 14.0463L7.59375 17.0312V11.0312ZM19.5938 20.0312H13.5938L16.6087 23.7812L19.5938 20.0312ZM30.0938 0.53125H3.09375C1.44375 0.53125 0.09375 1.88125 0.09375 3.53125V24.5312C0.09375 26.1812 1.44375 27.5312 3.09375 27.5312H30.0938C31.7437 27.5312 33.0938 26.1812 33.0938 24.5312V3.53125C33.0938 1.88125 31.7437 0.53125 30.0938 0.53125ZM30.0938 24.5462H3.09375V3.51625H30.0938V24.5462Z" fill="#282828"/>
</svg>
