<svg width="25" height="25" viewBox="0 0 25 25" fill="none" xmlns="http://www.w3.org/2000/svg">
<path d="M18.3789 16.4862C17.6189 16.4862 16.9389 16.7863 16.4189 17.2563L9.28891 13.1062C9.33891 12.8763 9.37891 12.6462 9.37891 12.4062C9.37891 12.1663 9.33891 11.9362 9.28891 11.7063L16.3389 7.59625C16.8789 8.09625 17.5889 8.40625 18.3789 8.40625C20.0389 8.40625 21.3789 7.06625 21.3789 5.40625C21.3789 3.74625 20.0389 2.40625 18.3789 2.40625C16.7189 2.40625 15.3789 3.74625 15.3789 5.40625C15.3789 5.64625 15.4189 5.87625 15.4689 6.10625L8.41891 10.2163C7.87891 9.71625 7.16891 9.40625 6.37891 9.40625C4.71891 9.40625 3.37891 10.7463 3.37891 12.4062C3.37891 14.0662 4.71891 15.4062 6.37891 15.4062C7.16891 15.4062 7.87891 15.0962 8.41891 14.5962L15.5389 18.7563C15.4889 18.9662 15.4589 19.1863 15.4589 19.4062C15.4589 21.0163 16.7689 22.3263 18.3789 22.3263C19.9889 22.3263 21.2989 21.0163 21.2989 19.4062C21.2989 17.7963 19.9889 16.4862 18.3789 16.4862ZM18.3789 4.40625C18.9289 4.40625 19.3789 4.85625 19.3789 5.40625C19.3789 5.95625 18.9289 6.40625 18.3789 6.40625C17.8289 6.40625 17.3789 5.95625 17.3789 5.40625C17.3789 4.85625 17.8289 4.40625 18.3789 4.40625ZM6.37891 13.4062C5.82891 13.4062 5.37891 12.9563 5.37891 12.4062C5.37891 11.8562 5.82891 11.4062 6.37891 11.4062C6.92891 11.4062 7.37891 11.8562 7.37891 12.4062C7.37891 12.9563 6.92891 13.4062 6.37891 13.4062ZM18.3789 20.4263C17.8289 20.4263 17.3789 19.9762 17.3789 19.4263C17.3789 18.8763 17.8289 18.4263 18.3789 18.4263C18.9289 18.4263 19.3789 18.8763 19.3789 19.4263C19.3789 19.9762 18.9289 20.4263 18.3789 20.4263Z" fill="white"/>
</svg>
