<svg width="39" height="40" viewBox="0 0 39 40" fill="none" xmlns="http://www.w3.org/2000/svg">
<path d="M29.0321 26.6074C27.8068 26.6074 26.7104 27.0911 25.872 27.8489L14.3763 21.1579C14.457 20.787 14.5215 20.4162 14.5215 20.0292C14.5215 19.6423 14.457 19.2715 14.3763 18.9006L25.7431 12.2741C26.6137 13.0802 27.7584 13.58 29.0321 13.58C31.7086 13.58 33.869 11.4196 33.869 8.74315C33.869 6.06673 31.7086 3.90625 29.0321 3.90625C26.3557 3.90625 24.1952 6.06673 24.1952 8.74315C24.1952 9.1301 24.2597 9.50093 24.3404 9.87176L12.9736 16.4983C12.103 15.6922 10.9583 15.1923 9.68455 15.1923C7.00814 15.1923 4.84766 17.3528 4.84766 20.0292C4.84766 22.7057 7.00814 24.8661 9.68455 24.8661C10.9583 24.8661 12.103 24.3663 12.9736 23.5602L24.4532 30.2673C24.3726 30.6059 24.3242 30.9606 24.3242 31.3153C24.3242 33.9111 26.4363 36.0233 29.0321 36.0233C31.6279 36.0233 33.7401 33.9111 33.7401 31.3153C33.7401 28.7195 31.6279 26.6074 29.0321 26.6074ZM29.0321 7.13085C29.9189 7.13085 30.6444 7.85638 30.6444 8.74315C30.6444 9.62991 29.9189 10.3554 29.0321 10.3554C28.1454 10.3554 27.4198 9.62991 27.4198 8.74315C27.4198 7.85638 28.1454 7.13085 29.0321 7.13085ZM9.68455 21.6415C8.79779 21.6415 8.07225 20.916 8.07225 20.0292C8.07225 19.1425 8.79779 18.4169 9.68455 18.4169C10.5713 18.4169 11.2969 19.1425 11.2969 20.0292C11.2969 20.916 10.5713 21.6415 9.68455 21.6415ZM29.0321 32.9599C28.1454 32.9599 27.4198 32.2343 27.4198 31.3476C27.4198 30.4608 28.1454 29.7353 29.0321 29.7353C29.9189 29.7353 30.6444 30.4608 30.6444 31.3476C30.6444 32.2343 29.9189 32.9599 29.0321 32.9599Z" fill="#282828"/>
</svg>
