<svg width="24" height="26" viewBox="0 0 24 26" fill="none" xmlns="http://www.w3.org/2000/svg">
<g clip-path="url(#clip0_466_89)">
<path d="M10.5396 15.7797C9.39189 17.1946 8.27173 18.5705 7.16076 19.9562C5.76515 21.6833 4.36036 23.4007 2.97393 25.1376C2.78111 25.3816 2.57912 25.4987 2.27612 25.4792C1.78032 25.4499 1.27533 25.4694 0.660156 25.4694C3.6901 21.7223 6.65577 18.0631 9.6398 14.3746C6.65577 9.75904 3.6901 5.17278 0.67852 0.51821C0.862152 0.508452 0.990695 0.488936 1.11924 0.488936C3.11165 0.488936 5.09489 0.498694 7.0873 0.479178C7.39948 0.479178 7.58311 0.586516 7.75756 0.849982C9.5388 3.63101 11.3384 6.40229 13.1288 9.17356C13.2206 9.31993 13.3216 9.45654 13.4502 9.6517C14.0378 8.92961 14.6071 8.22703 15.1763 7.53421C16.9943 5.28987 18.8123 3.04553 20.621 0.801192C20.8047 0.567 20.9975 0.46942 21.2821 0.479178C21.7871 0.508452 22.2921 0.488936 22.9073 0.488936C20.0242 4.05061 17.1963 7.54397 14.35 11.0666C17.435 15.848 20.52 20.6197 23.6602 25.4694C23.4214 25.4694 23.2745 25.4694 23.1276 25.4694C21.1719 25.4694 19.2071 25.4597 17.2514 25.4792C16.9208 25.4792 16.7372 25.3718 16.5444 25.0889C14.6622 22.1517 12.7616 19.2145 10.861 16.2871C10.7783 16.131 10.6773 15.9846 10.5396 15.7797ZM3.43301 2.12828C3.95636 2.91868 4.42463 3.63101 4.89289 4.3531C9.09808 10.7446 13.2941 17.1361 17.5085 23.5178C17.6095 23.6642 17.7564 23.8886 17.8849 23.8984C18.849 23.9277 19.8222 23.9179 20.8598 23.9179C20.7312 23.7032 20.6486 23.5666 20.5659 23.4398C19.1703 21.3223 17.7839 19.2048 16.3883 17.0873C13.1931 12.2278 9.99788 7.36833 6.79349 2.50884C6.69249 2.36247 6.54559 2.1478 6.40786 2.1478C5.45297 2.10876 4.49808 2.12828 3.43301 2.12828Z" fill="url(#paint0_linear_466_89)"/>
</g>
<defs>
<linearGradient id="paint0_linear_466_89" x1="0.660156" y1="12.9799" x2="23.6602" y2="12.9799" gradientUnits="userSpaceOnUse">
<stop stop-color="#F73973"/>
<stop offset="1" stop-color="#FEAC01"/>
</linearGradient>
<clipPath id="clip0_466_89">
<rect width="23" height="25" fill="white" transform="translate(0.660156 0.480469)"/>
</clipPath>
</defs>
</svg>
