<svg width="41" height="29" viewBox="0 0 41 29" fill="none" xmlns="http://www.w3.org/2000/svg">
<g clip-path="url(#clip0_466_81)">
<path d="M20.6094 0.480469C25.1719 0.480469 29.7188 0.480469 34.2812 0.480469C38.0938 0.480469 40.5312 2.97112 40.5312 6.82608C40.5312 11.9502 40.5312 17.0901 40.5312 22.2142C40.5312 25.9581 38.0625 28.4805 34.3594 28.4805C25.1406 28.4805 15.9219 28.4805 6.70312 28.4805C3 28.4805 0.53125 25.9581 0.53125 22.2142C0.53125 17.0584 0.53125 11.9026 0.53125 6.74676C0.53125 3.00285 3 0.496333 6.70312 0.480469C11.3438 0.480469 15.9844 0.480469 20.6094 0.480469ZM20.5469 27.0051C25.0781 27.0051 29.6094 27.0051 34.1406 27.0051C37.3125 27.0051 39.0938 25.2125 39.0938 22.0079C39.0938 16.9632 39.0938 11.9026 39.0938 6.85781C39.0938 3.81191 37.2812 1.95582 34.2812 1.95582C25.1094 1.95582 15.9531 1.95582 6.78125 1.95582C3.82812 1.95582 2 3.79605 1.98438 6.79435C1.96875 11.9184 1.96875 17.0584 1.98438 22.1825C1.98438 25.1649 3.82812 27.0051 6.78125 27.0051C11.375 27.0051 15.9531 27.0051 20.5469 27.0051Z" fill="url(#paint0_linear_466_81)"/>
<path d="M15.6719 14.488C15.6719 12.7113 15.6719 10.9504 15.6719 9.17358C15.6719 8.04724 16.125 7.76168 17.0625 8.30106C20.1562 10.0937 23.2344 11.9022 26.3125 13.7266C27.2188 14.2659 27.2188 14.837 26.3281 15.3606C23.2188 17.1849 20.125 19.0093 17.0156 20.8178C16.1562 21.3096 15.6719 21.024 15.6719 20.0246C15.6719 18.1843 15.6719 16.3283 15.6719 14.488ZM17.1719 10.0778C17.1719 13.1079 17.1719 15.9951 17.1719 19.0093C19.75 17.5022 22.2344 16.0427 24.7969 14.5356C22.2188 13.0444 19.75 11.6008 17.1719 10.0778Z" fill="url(#paint1_linear_466_81)"/>
</g>
<defs>
<linearGradient id="paint0_linear_466_81" x1="0.53125" y1="14.4805" x2="40.5312" y2="14.4805" gradientUnits="userSpaceOnUse">
<stop stop-color="#F73973"/>
<stop offset="1" stop-color="#FEAC01"/>
</linearGradient>
<linearGradient id="paint1_linear_466_81" x1="15.6719" y1="14.5451" x2="26.9942" y2="14.5451" gradientUnits="userSpaceOnUse">
<stop stop-color="#F73973"/>
<stop offset="1" stop-color="#FEAC01"/>
</linearGradient>
<clipPath id="clip0_466_81">
<rect width="40" height="28" fill="white" transform="translate(0.53125 0.480469)"/>
</clipPath>
</defs>
</svg>
